<?xml version="1.0" standalone="no"?>
<!DOCTYPE svg PUBLIC "-//W3C//DTD SVG 20010904//EN"
 "http://www.w3.org/TR/2001/REC-SVG-20010904/DTD/svg10.dtd">
<svg version="1.0" xmlns="http://www.w3.org/2000/svg"
 width="474.000000pt" height="474.000000pt" viewBox="0 0 474.000000 474.000000"
 preserveAspectRatio="xMidYMid meet">
<metadata>
Created by potrace 1.14, written by Peter Selinger 2001-2017
</metadata>
<g transform="translate(0.000000,474.000000) scale(0.100000,-0.100000)"
fill="#000000" stroke="none">
<path d="M1898 4512 c-10 -2 -18 -12 -18 -23 0 -10 -4 -19 -10 -19 -5 0 -10
-9 -10 -19 0 -11 -5 -23 -11 -26 -6 -4 -8 -13 -5 -21 3 -7 -2 -20 -10 -29 -9
-8 -12 -15 -8 -15 3 0 2 -6 -3 -12 -6 -7 -14 -26 -18 -43 -11 -39 -9 -33 -33
-88 -12 -27 -22 -52 -22 -57 0 -4 -7 -21 -15 -36 -8 -16 -15 -37 -15 -46 0
-10 -4 -18 -8 -18 -5 0 -9 -6 -9 -12 0 -7 -7 -29 -15 -48 -19 -43 -43 -103
-43 -110 0 -3 -4 -11 -8 -17 -5 -7 -5 -13 0 -13 4 0 3 -4 -3 -8 -11 -8 -60
-132 -56 -144 1 -5 -3 -8 -8 -8 -6 0 -10 -6 -9 -12 2 -7 -5 -31 -15 -53 -31
-71 -116 -294 -116 -305 0 -5 -4 -10 -8 -10 -5 0 -9 -7 -10 -15 -1 -8 -3 -22
-4 -30 -1 -8 -5 -15 -10 -15 -4 0 -8 -6 -8 -14 0 -8 -10 -36 -22 -63 -11 -26
-22 -52 -23 -58 0 -5 -6 -21 -12 -35 -6 -14 -11 -28 -12 -32 -1 -5 -12 -32
-25 -62 -13 -30 -22 -57 -18 -60 3 -3 -1 -6 -8 -6 -7 0 -11 -3 -7 -6 3 -4 -2
-23 -12 -43 -11 -20 -19 -39 -20 -43 -1 -5 -2 -10 -2 -13 -1 -3 -2 -8 -3 -12
-1 -5 -10 -26 -19 -47 -10 -22 -20 -50 -23 -63 -4 -13 -9 -23 -13 -23 -4 0 -8
-7 -8 -15 0 -8 -7 -31 -15 -52 -14 -33 -27 -65 -33 -83 -3 -9 -18 -44 -33 -80
-8 -19 -16 -39 -16 -45 -1 -5 -9 -27 -19 -49 -9 -21 -17 -44 -17 -50 0 -7 -4
-16 -8 -22 -10 -10 -75 -178 -82 -209 -1 -5 -8 -21 -15 -35 -19 -34 -50 -123
-47 -132 1 -5 -2 -8 -8 -8 -6 0 -9 -3 -8 -7 1 -8 -3 -21 -36 -103 -17 -42 -29
-72 -31 -82 -2 -5 -3 -9 -5 -10 -1 -2 -3 -12 -5 -22 -2 -10 -7 -22 -12 -25 -4
-3 -10 -15 -11 -26 -2 -11 -8 -25 -13 -31 -5 -6 -10 -20 -12 -31 -2 -12 -9
-28 -16 -37 -7 -9 -11 -16 -8 -16 4 0 -3 -21 -14 -47 -25 -59 -48 -121 -54
-147 -3 -11 -10 -23 -17 -28 -7 -4 -10 -8 -6 -8 4 0 -1 -20 -12 -44 -10 -24
-16 -47 -13 -50 4 -3 1 -6 -5 -6 -7 0 -12 -9 -12 -20 0 -11 -5 -20 -12 -20 -6
0 -9 -3 -5 -6 6 -6 -18 -74 -48 -141 -8 -17 -15 -36 -15 -42 0 -6 -4 -19 -9
-29 -13 -24 -36 -79 -56 -137 -10 -27 -22 -55 -27 -61 -4 -6 -5 -14 -1 -17 3
-4 1 -7 -5 -7 -7 0 -11 -3 -11 -7 3 -18 -14 -73 -23 -73 -5 0 -8 -6 -7 -12 2
-18 -12 -58 -20 -58 -4 0 -7 -8 -8 -18 -1 -9 -15 -49 -31 -89 -17 -39 -28 -74
-24 -77 3 -3 0 -6 -6 -6 -7 0 -12 -6 -12 -14 0 -7 -8 -31 -17 -52 -32 -75 -68
-69 432 -70 428 -1 485 2 469 27 -3 5 0 9 5 9 6 0 10 3 9 7 -2 9 8 45 21 78
30 73 71 189 71 201 0 8 4 14 8 14 5 0 9 6 10 13 2 21 11 50 32 102 11 27 42
113 75 205 15 41 43 118 62 170 19 52 35 101 36 108 0 6 4 12 9 12 5 0 7 4 3
9 -3 5 3 12 12 14 16 4 1692 3 1717 -1 5 -1 7 -5 4 -8 -5 -5 25 -91 57 -164 8
-17 17 -50 15 -56 -1 -4 3 -10 9 -14 6 -3 13 -15 16 -26 2 -10 14 -44 25 -74
12 -30 34 -89 48 -130 15 -41 29 -77 32 -80 5 -5 22 -48 62 -160 11 -30 26
-68 33 -85 7 -16 25 -62 40 -101 l27 -70 466 0 c410 1 467 3 463 16 -2 8 -5
22 -6 30 -2 8 -4 17 -5 20 -1 3 -2 8 -1 13 0 4 -4 7 -11 7 -6 0 -9 3 -6 6 6 5
-9 44 -49 134 -9 19 -16 41 -16 48 0 6 -4 12 -9 12 -4 0 -7 3 -6 8 1 4 -4 21
-11 37 -19 48 -23 60 -19 61 2 0 -3 8 -11 17 -7 10 -10 17 -6 17 4 0 1 7 -6
16 -7 9 -14 23 -15 31 -1 8 -6 22 -10 31 -4 9 -8 19 -9 22 -1 3 -8 19 -15 35
-7 17 -14 32 -15 35 -1 3 -4 12 -7 20 -4 8 -9 24 -14 35 -4 11 -6 23 -6 28 1
4 -3 7 -8 7 -5 0 -9 3 -8 8 1 4 -4 18 -12 32 -7 14 -12 25 -11 25 4 0 -15 53
-40 110 -7 17 -13 32 -14 35 -7 22 -19 49 -31 73 -8 15 -12 32 -9 37 3 6 1 10
-4 10 -6 0 -11 7 -11 15 0 8 -4 23 -9 33 -8 16 -17 37 -40 95 -5 12 -16 38
-25 59 -9 20 -16 38 -16 41 0 3 -10 27 -22 54 -11 26 -23 57 -25 68 -2 10 -7
22 -11 25 -4 3 -8 12 -10 20 -1 8 -6 24 -11 35 -5 11 -16 37 -26 58 -9 21 -18
47 -20 58 -2 12 -8 26 -13 33 -9 12 -69 162 -74 186 -2 8 -9 21 -15 28 -7 7
-13 21 -13 31 0 10 -3 21 -7 25 -5 4 -8 11 -9 14 -1 6 -14 43 -31 82 -3 8 -5
18 -5 23 1 4 -3 7 -9 7 -5 0 -8 4 -5 8 3 5 -4 26 -16 48 -11 21 -20 39 -19 39
2 0 -11 35 -31 83 -6 15 -12 34 -14 42 -2 8 -7 23 -12 35 -36 75 -46 102 -44
113 2 6 -1 12 -6 12 -6 0 -13 11 -16 25 -3 13 -11 37 -18 52 -6 15 -12 30 -13
33 -2 5 -13 33 -37 90 -6 14 -13 34 -15 44 -2 11 -8 25 -14 33 -6 7 -8 13 -3
13 5 0 3 4 -4 8 -7 5 -14 18 -17 30 -2 12 -7 27 -10 32 -3 5 -8 20 -10 32 -3
13 -9 24 -15 26 -5 2 -10 10 -10 17 0 11 -60 168 -95 250 -7 17 -30 73 -50
125 -20 52 -41 99 -46 105 -5 5 -9 15 -9 21 0 7 -5 25 -12 41 -6 15 -12 34
-14 42 -1 8 -6 17 -11 20 -7 6 -12 19 -17 47 -1 7 -7 18 -14 26 -6 8 -13 23
-15 34 -2 10 -9 29 -15 42 -7 12 -10 22 -6 22 3 0 2 6 -3 13 -8 10 -155 369
-159 387 0 3 -5 16 -11 30 -30 71 -85 206 -87 215 -2 6 -7 19 -12 31 -9 20
-15 20 -454 20 -245 0 -453 -2 -462 -4z m472 -1084 c13 -40 27 -77 31 -83 4
-5 8 -14 9 -20 1 -5 6 -20 11 -33 5 -13 9 -29 9 -36 0 -6 4 -16 10 -22 5 -5
11 -18 13 -29 2 -11 13 -42 25 -68 12 -27 21 -51 20 -55 -1 -4 7 -25 17 -47
10 -22 17 -44 16 -49 -1 -4 3 -14 8 -20 6 -7 12 -21 14 -32 2 -10 11 -36 20
-58 9 -21 17 -44 17 -51 0 -6 3 -15 8 -19 4 -4 7 -11 8 -14 0 -4 6 -20 13 -37
6 -16 16 -43 22 -60 6 -16 15 -39 21 -50 5 -12 10 -27 12 -35 2 -8 8 -28 14
-43 7 -16 12 -30 12 -32 0 -2 5 -16 12 -32 6 -15 12 -30 13 -33 1 -3 4 -12 8
-20 49 -126 157 -426 157 -436 0 -8 5 -14 11 -14 6 0 9 -7 6 -15 -4 -8 -2 -17
2 -20 5 -2 11 -13 13 -23 4 -15 0 -19 -21 -18 -14 1 -36 -2 -48 -6 -13 -4 -23
-4 -23 0 0 9 -215 6 -229 -3 -6 -3 -11 -2 -11 2 0 10 -134 8 -150 -2 -5 -3
-10 -3 -10 2 0 9 -214 8 -229 -2 -6 -3 -11 -3 -11 2 0 9 -214 8 -229 -2 -6 -3
-11 -2 -11 2 0 5 -42 8 -94 7 -84 -2 -94 -1 -91 14 3 18 40 123 55 157 7 17
19 53 25 75 1 3 6 16 12 30 6 14 20 54 33 90 13 36 27 76 33 90 6 14 11 27 11
30 2 8 37 103 46 125 20 45 103 281 103 293 0 6 4 12 9 12 4 0 7 3 7 8 -1 4 0
10 1 15 1 4 3 10 5 15 1 4 7 20 13 35 7 16 12 32 12 36 0 5 8 26 17 47 10 22
18 44 18 50 0 6 7 20 15 30 11 13 11 16 1 10 -10 -7 -10 -3 2 15 12 20 36 82
43 112 1 4 3 9 4 12 1 3 3 8 5 13 1 4 7 20 13 35 7 16 12 30 12 32 0 2 5 16
12 32 6 15 12 31 13 36 2 4 4 9 5 12 1 3 4 10 5 15 1 6 4 13 5 18 1 4 2 10 1
15 0 4 4 7 9 7 6 0 10 3 9 8 -2 13 13 52 20 52 4 0 17 -33 31 -72z"/>
</g>
</svg>
