<svg width="138" height="27" viewBox="0 0 138 27" fill="none" xmlns="http://www.w3.org/2000/svg">
<g filter="url(#filter0_d_11_8)">
<path d="M4 18L9.184 0.311999H16.48L21.664 18H16.912L16.024 14.472H9.64L8.752 18H4ZM10.528 11.016H15.136L13.264 3.696H12.4L10.528 11.016ZM25.5359 18L22.8719 15.336V8.136L25.5359 5.448H30.0479L31.8479 6.984V0.311999H36.3359V18H31.8479V16.488L30.0239 18H25.5359ZM27.8159 15.432H29.7119L31.8479 13.584V9.864L29.7359 8.016H27.8159L27.2399 8.664V14.832L27.8159 15.432ZM42.3306 18L37.8906 5.472H43.0506L45.0666 14.616H45.9306L47.9466 5.472H53.1066L48.6666 18H42.3306ZM56.8249 18L54.1609 15.336V8.136L56.8249 5.472H63.8809L66.5449 8.136V12.888H58.6489V13.992L59.5129 14.832H66.3529V18H56.8249ZM58.6489 10.296H62.4649V8.808L61.6009 7.968H59.5129L58.6489 8.808V10.296ZM69.4272 18V5.448H73.9152V7.176L76.0272 5.448H80.3472L83.0112 8.136V18H78.5232V8.76L77.7072 7.992H76.4112L73.9152 10.104V18H69.4272ZM88.4723 18L85.9523 15.672V8.256H85.0403V5.472H86.1203L87.4883 1.896H90.4403V5.472H92.4083V8.256H90.4403V14.496L91.0883 15.144H92.9123V18H88.4723ZM97.4918 18.024L94.8278 15.36V5.472H99.3158V14.64L100.156 15.48H101.14L103.564 13.416V5.472H108.052V18H103.564V16.32L101.476 18.024H97.4918ZM111.169 18V5.448H115.657V7.416L117.793 5.472H120.241V9.48H116.641L115.657 10.368V18H111.169ZM124.091 18L121.427 15.336V8.136L124.091 5.472H131.147L133.811 8.136V12.888H125.915V13.992L126.779 14.832H133.619V18H124.091ZM125.915 10.296H129.731V8.808L128.867 7.968H126.779L125.915 8.808V10.296Z" fill="white"/>
</g>
<defs>
<filter id="filter0_d_11_8" x="0" y="0.312012" width="137.811" height="25.712" filterUnits="userSpaceOnUse" color-interpolation-filters="sRGB">
<feFlood flood-opacity="0" result="BackgroundImageFix"/>
<feColorMatrix in="SourceAlpha" type="matrix" values="0 0 0 0 0 0 0 0 0 0 0 0 0 0 0 0 0 0 127 0" result="hardAlpha"/>
<feOffset dy="4"/>
<feGaussianBlur stdDeviation="2"/>
<feComposite in2="hardAlpha" operator="out"/>
<feColorMatrix type="matrix" values="0 0 0 0 0.8875 0 0 0 0 0.86901 0 0 0 0 0.86901 0 0 0 0.25 0"/>
<feBlend mode="normal" in2="BackgroundImageFix" result="effect1_dropShadow_11_8"/>
<feBlend mode="normal" in="SourceGraphic" in2="effect1_dropShadow_11_8" result="shape"/>
</filter>
</defs>
</svg>
